<svg xmlns="http://www.w3.org/2000/svg" viewBox="0 0 1200 400" width="1200" height="400">
  <defs>
    <linearGradient id="bbb2" x1="0" y1="0" x2="1" y2="0">
      <stop offset="0%" stop-color="#0A1A2E"/>
      <stop offset="60%" stop-color="#162840"/>
      <stop offset="100%" stop-color="#0A1A2E"/>
    </linearGradient>
  </defs>
  <rect width="1200" height="400" fill="url(#bbb2)"/>
  <!-- Diagonal editorial lines -->
  <line x1="0" y1="0" x2="1200" y2="400" stroke="#D4AF37" stroke-opacity="0.07" stroke-width="80"/>
  <line x1="0" y1="100" x2="1100" y2="400" stroke="#D4AF37" stroke-opacity="0.04" stroke-width="50"/>
  <!-- Geometric frame -->
  <rect x="60" y="30" width="1080" height="340" fill="none" stroke="#D4AF37" stroke-opacity="0.15" stroke-width="1.5"/>
  <rect x="80" y="50" width="1040" height="300" fill="none" stroke="#D4AF37" stroke-opacity="0.08" stroke-width="1"/>
  <!-- Abstract figure silhouette -->
  <ellipse cx="900" cy="140" rx="60" ry="70" fill="#D4AF37" fill-opacity="0.12"/>
  <path fill="#D4AF37" fill-opacity="0.12"
    d="M 820,400 L 820,250 C 840,210 870,195 900,192 C 930,195 960,210 980,250 L 980,400 Z"/>
  <!-- Decorative dots -->
  <circle cx="200" cy="200" r="3" fill="#D4AF37" fill-opacity="0.3"/>
  <circle cx="240" cy="160" r="2" fill="#D4AF37" fill-opacity="0.2"/>
  <circle cx="160" cy="240" r="2" fill="#D4AF37" fill-opacity="0.2"/>
  <!-- Label area -->
  <text x="300" y="185" font-family="serif" font-size="48" fill="white" fill-opacity="0.9" font-style="italic">Style Icon</text>
  <line x1="200" y1="210" x2="600" y2="210" stroke="white" stroke-opacity="0.2" stroke-width="1"/>
  <text x="300" y="240" font-family="sans-serif" font-size="14" fill="white" fill-opacity="0.5" letter-spacing="4">FASHION AMBASSADOR</text>
</svg>